<?xml version="1.0" encoding="utf-8"?>
<!-- Generator: Adobe Illustrator 15.0.0, SVG Export Plug-In . SVG Version: 6.00 Build 0)  -->
<!DOCTYPE svg PUBLIC "-//W3C//DTD SVG 1.1//EN" "http://www.w3.org/Graphics/SVG/1.1/DTD/svg11.dtd">
<svg version="1.1" id="Calque_1" xmlns="http://www.w3.org/2000/svg" xmlns:xlink="http://www.w3.org/1999/xlink" x="0px" y="0px"
	 width="289.5px" height="710px" viewBox="0 0 289.5 710" enable-background="new 0 0 289.5 710" xml:space="preserve">
<polyline fill="none" stroke="#000000" stroke-width="0.25" stroke-miterlimit="10" points="0,692.5 144,557.5 234.984,414.188 
	288.901,468.899 288.945,468.944 "/>
<polyline fill="none" stroke="#0A0000" stroke-width="0.25" stroke-miterlimit="10" points="289,469 235,414 144.5,548.5 0.5,675 
	"/>
<polyline fill="none" stroke="#0A0000" stroke-width="0.25" stroke-miterlimit="10" points="0.5,656 144.5,540 235.25,477.5 
	288.974,469 "/>
<polyline fill="none" stroke="#0A0000" stroke-width="0.25" stroke-miterlimit="10" points="288.938,469.062 235.5,486.25 
	145,368.75 0.5,638.5 "/>
<polyline fill="none" stroke="#0A0000" stroke-width="0.25" stroke-miterlimit="10" points="0.5,628.75 144.75,377.5 
	235.516,486.359 288.688,469.062 "/>
<polyline fill="none" stroke="#0A0000" stroke-width="0.25" stroke-miterlimit="10" points="288.906,469 235.5,486.25 
	145.25,387.25 0.25,620 "/>
<polyline fill="none" stroke="#0A0000" stroke-width="0.25" stroke-miterlimit="10" points="1,611.5 145.25,396.25 235.516,486.344 
	288.938,468.969 "/>
<polyline fill="none" stroke="#0A0000" stroke-width="0.25" stroke-miterlimit="10" points="288.875,469.083 235.516,494.922 
	144.547,404.469 0.547,594.219 "/>
<polyline fill="none" stroke="#0A0000" stroke-width="0.25" stroke-miterlimit="10" points="0.297,574.719 144.797,422.969 
	235.508,494.808 288.625,469.208 "/>
<polyline fill="none" stroke="#0A0000" stroke-width="0.25" stroke-miterlimit="10" points="288.906,469.046 235.516,494.922 
	145.75,414.5 0.25,557.75 "/>
<polyline fill="none" stroke="#0A0000" stroke-width="0.25" stroke-miterlimit="10" points="0.5,540 144.25,575.75 235,414 
	288.926,468.925 "/>
<polyline fill="none" stroke="#0A0000" stroke-width="0.25" stroke-miterlimit="10" points="288.844,469.094 235.5,504.5 
	144.75,449.25 0.5,531 "/>
<polyline fill="none" stroke="#0A0000" stroke-width="0.25" stroke-miterlimit="10" points="0.5,521.75 144.75,459.25 
	235.516,504.625 288.781,469.125 "/>
<polyline fill="none" stroke="#0A0000" stroke-width="0.25" stroke-miterlimit="10" points="288.906,469.062 235.5,504.5 
	144.75,468 0.5,513 "/>
<polyline fill="none" stroke="#0A0000" stroke-width="0.25" stroke-miterlimit="10" points="0.5,494.25 144.5,613.25 235.75,396.25 
	288.899,468.862 "/>
<polyline fill="none" stroke="#0A0000" stroke-width="0.25" stroke-miterlimit="10" points="288.75,468.812 235.75,396.25 
	144.5,603 0,476.5 "/>
<polyline fill="none" stroke="#0A0000" stroke-width="0.25" stroke-miterlimit="10" points="0.5,459 144.75,593.5 235.781,396.938 
	288.917,469.083 "/>
<polyline fill="none" stroke="#0A0000" stroke-width="0.25" stroke-miterlimit="10" points="288.956,468.94 235.75,396.25 145,585 
	0.5,441.25 "/>
<polyline fill="none" stroke="#0A0000" stroke-width="0.25" stroke-miterlimit="10" points="0.5,423 144.25,476.75 235.5,513.75 
	288.94,469.05 "/>
<polyline fill="none" stroke="#0A0000" stroke-width="0.25" stroke-miterlimit="10" points="288.916,469.084 235.531,513.625 
	144.5,486.5 0.75,404.75 "/>
<polyline fill="none" stroke="#0A0000" stroke-width="0.25" stroke-miterlimit="10" points="0.5,385.75 144.5,494.75 235.5,513.844 
	288.999,469 "/>
<polyline fill="none" stroke="#0A0000" stroke-width="0.25" stroke-miterlimit="10" points="288.906,469.078 235.5,513.75 
	144.5,503.75 0.5,369 "/>
<polyline fill="none" stroke="#0A0000" stroke-width="0.25" stroke-miterlimit="10" points="0.75,349.75 145,513.5 235.25,477.5 
	288.86,469.022 "/>
<polyline fill="none" stroke="#0A0000" stroke-width="0.25" stroke-miterlimit="10" points="288.844,469.031 235.25,477.5 
	145.75,523 0.75,332.5 "/>
<polyline fill="none" stroke="#0A0000" stroke-width="0.25" stroke-miterlimit="10" points="0.5,315.5 144.5,530.75 
	235.281,477.609 288.781,469 "/>
<polyline fill="none" stroke="#0A0000" stroke-width="0.25" stroke-miterlimit="10" points="288.845,469.104 235.5,504.5 
	144.75,440.75 0.75,306 "/>
<polyline fill="none" stroke="#0A0000" stroke-width="0.25" stroke-miterlimit="10" points="0.5,269.75 145.25,433.25 
	235.489,495.377 288.856,469.069 "/>
<polyline fill="none" stroke="#0A0000" stroke-width="0.25" stroke-miterlimit="10" points="288.75,469.062 235.75,459.5 
	144.25,206.75 0.75,296.25 "/>
<polyline fill="none" stroke="#0A0000" stroke-width="0.25" stroke-miterlimit="10" points="0.5,278.75 144.75,198 235.625,459.5 
	288.875,469.125 "/>
<polyline fill="none" stroke="#0A0000" stroke-width="0.25" stroke-miterlimit="10" points="288.959,469.042 235.75,468.75 
	145.25,171 0.25,260.5 "/>
<polyline fill="none" stroke="#0A0000" stroke-width="0.25" stroke-miterlimit="10" points="1,243 145,179.5 235.626,468.792 
	288.751,468.959 "/>
<polyline fill="none" stroke="#0A0000" stroke-width="0.25" stroke-miterlimit="10" points="288.625,468.959 235.75,468.75 
	144.75,161.5 0.5,215.75 "/>
<polyline fill="none" stroke="#0A0000" stroke-width="0.25" stroke-miterlimit="10" points="0.5,197.5 145,153.25 235.75,468.751 
	288.625,469.001 "/>
<polyline fill="none" stroke="#0A0000" stroke-width="0.25" stroke-miterlimit="10" points="288.875,469.094 235.75,459.5 
	144.75,216.25 0.5,179 "/>
<polyline fill="none" stroke="#0A0000" stroke-width="0.25" stroke-miterlimit="10" points="0.5,161.75 144.75,225.75 
	235.656,459.5 288.469,469.062 "/>
<polyline fill="none" stroke="#0A0000" stroke-width="0.25" stroke-miterlimit="10" points="288.042,468.667 235.5,450 145.5,234.5 
	0.5,143.75 "/>
<polyline fill="none" stroke="#0A0000" stroke-width="0.25" stroke-miterlimit="10" points="0.25,125.5 144.5,242.75 235.501,450 
	288.792,468.917 "/>
<polyline fill="none" stroke="#0A0000" stroke-width="0.25" stroke-miterlimit="10" points="288.738,469.023 235.75,459.5 
	144.5,188.75 0.5,224.75 "/>
<polyline fill="none" stroke="#0A0000" stroke-width="0.25" stroke-miterlimit="10" points="0.5,108 144.75,250.75 235.5,450 
	288.732,468.984 "/>
<polyline fill="none" stroke="#0A0000" stroke-width="0.25" stroke-miterlimit="10" points="0.5,98.25 144.25,259.75 235.5,441.75 
	288.953,469 "/>
<polyline fill="none" stroke="#0A0000" stroke-width="0.25" stroke-miterlimit="10" points="288.531,468.781 235.5,441.75 
	144.5,269.75 0.25,89.25 "/>
<polyline fill="none" stroke="#0A0000" stroke-width="0.25" stroke-miterlimit="10" points="0.5,81 144.5,277.75 235.542,441.708 
	288.844,468.969 "/>
<polyline fill="none" stroke="#0A0000" stroke-width="0.25" stroke-miterlimit="10" points="288.637,468.815 235.5,441.75 
	144.5,287.25 0.25,72 "/>
<polyline fill="none" stroke="#0A0000" stroke-width="0.25" stroke-miterlimit="10" points="0.25,54 144.75,305 235.25,431.75 
	288.605,468.728 "/>
<polyline fill="none" stroke="#0A0000" stroke-width="0.25" stroke-miterlimit="10" points="288.417,468.583 235.25,431.75 
	144.5,296.25 0.25,63.25 "/>
<polyline fill="none" stroke="#0A0000" stroke-width="0.25" stroke-miterlimit="10" points="0.25,44.5 144.5,314.5 235.25,431.875 
	288.5,468.583 "/>
<polyline fill="none" stroke="#0A0000" stroke-width="0.25" stroke-miterlimit="10" points="288.551,468.689 235.25,431.75 
	144.5,323.75 1,35.75 "/>
<polyline fill="none" stroke="#0A0000" stroke-width="0.25" stroke-miterlimit="10" points="0.5,26.5 144.5,331.75 235.5,423 
	288.951,468.957 "/>
<polyline fill="none" stroke="#0A0000" stroke-width="0.25" stroke-miterlimit="10" points="288.667,468.708 235.5,423 144.5,340.5 
	0.25,17.25 "/>
<polyline fill="none" stroke="#0A0000" stroke-width="0.25" stroke-miterlimit="10" points="0.25,8.75 144.75,349.5 
	235.501,423.042 288.501,468.667 "/>
<polyline fill="none" stroke="#0A0000" stroke-width="0.25" stroke-miterlimit="10" points="0.5,0 145,357.75 235.5,423 289,469 "/>
<polyline fill="none" stroke="#000000" stroke-width="0.25" stroke-miterlimit="10" points="0.25,710 144.5,566 235,414 
	288.917,469.001 "/>
</svg>
